<?xml version="1.0" encoding="UTF-8"?>
<svg width="120px" height="26px" viewBox="0 0 120 26" version="1.1" xmlns="http://www.w3.org/2000/svg" xmlns:xlink="http://www.w3.org/1999/xlink">
    <!-- Generator: Sketch 44.1 (41455) - http://www.bohemiancoding.com/sketch -->
    <title>logo</title>
    <desc>Created with Sketch.</desc>
    <defs></defs>
    <g id="CRM系统" stroke="none" stroke-width="1" fill="none" fill-rule="evenodd">
        <g transform="translate(-20.000000, -11.000000)" id="Titlebar" fill="#FFFFFF">
            <g>
                <g id="logo" transform="translate(20.000000, 11.000000)">
                    <polygon id="Fill-1" points="85.5278908 10.2770788 84.7190171 11.8732745 81.696901 11.8732745 81.696901 13.4763995 83.7237952 13.4763995 81.7063208 17.4725951 81.696901 19.3797962 88.7449556 19.3797962 88.7449556 21.3876766 81.6326007 21.3876766 81.6326007 22.9655299 88.7449556 22.9655299 88.7449556 25.6337364 92.4776519 25.6337364 92.4776519 22.9655299 97.8817474 22.9655299 97.8817474 21.3876766 92.4776519 21.3876766 92.4776519 19.3797962 97.8817474 19.3797962 97.8817474 17.8626766 92.4776519 17.8626766 92.4776519 15.0713723 88.7449556 15.0713723 88.7449556 17.8626766 85.3333515 17.8626766 87.6825666 13.4763995 97.8817474 13.4763995 97.8817474 11.8732745 88.452942 11.9865897 89.3941024 10.2770788"></polygon>
                    <path d="M116.595031,10.259837 L116.679809,11.9933967 L115.291413,11.9933967 L115.116532,10.259837 L112.279126,10.3682609 L112.495372,12.1018207 L105.81387,11.9933967 L105.81387,25.6336141 L108.802812,23.1940761 L108.802812,16.7620109 L109.512983,16.7620109 L109.512983,22.7444837 L112.066567,20.6880978 L112.066567,14.9065761 L109.048137,14.9065761 L109.048137,13.8484239 L112.712027,13.9564402 L113.350116,20.311875 L107.560218,25.7497826 L113.617147,21.8171739 L113.91858,25.6336141 L118.852915,25.6336141 L118.852915,23.2784511 L116.595031,23.2784511 L116.243631,20.0697554 L119.988205,17.5788587 L118.436396,15.5110598 L115.952027,17.8091576 L115.62602,13.8484239 L118.449911,13.8484239 L118.449911,11.9933967 L118.449911,10.259837 L116.595031,10.259837 Z M102.156123,10.2769565 L102.156123,12.2188043 L100.931959,12.2188043 L100.931959,14.2303533 L102.156123,14.2303533 L102.156123,23.3037228 L100.906976,23.3037228 L100.906976,25.6336141 L105.19544,25.6336141 L105.19544,10.2769565 L102.156123,10.2769565 Z" id="Fill-2"></path>
                    <g id="Group-19" transform="translate(0.000000, 0.070272)">
                        <path d="M0,14.2484511 C2.18989761,11.5480435 5.21201365,10.5494022 8.50566553,10.1275272 C12.2707167,9.6457337 16.0230717,9.97671196 19.7631399,10.4238587 C25.4916041,11.1082337 31.2024573,11.9678804 37.0021843,11.7457337 C43.9216382,11.4811957 50.7645051,10.7344565 57.3841638,8.58798913 C58.4895563,8.22970109 59.5838908,7.77725543 60.5967235,7.213125 C62.0993857,6.37671196 61.8241638,5.88228261 60.3026621,4.79478261 C59.4057338,4.15320652 57.7535836,3.46557065 56.6727645,3.00048913 C53.3709215,1.57915761 50.232901,0.745597826 46.0509215,0.426032609 C39.9604096,-0.039048913 33.6556997,1.3492663 28.7713311,3.97589674 C26.8431399,5.07480978 25.0619795,6.29355978 23.1272355,7.38024457 C22.54157,7.70918478 21.8948805,7.92970109 21.1679181,8.24682065 C22.8716724,8.22399457 24.4120137,7.93785326 25.8790444,7.34967391 C27.6495563,6.64002717 29.4122867,5.90633152 31.1426621,5.10538043 C37.1893515,2.30714674 43.4543345,1.75524457 49.8704437,3.27929348 C52.3081229,3.85850543 51.9133106,3.51203804 57.5512628,5.90103261 C56.6572014,6.17127717 56.156314,6.34206522 55.4133788,6.5426087 C51.552901,7.58567935 47.6195222,8.22847826 43.6480546,8.67236413 C39.6131058,9.12277174 35.567099,9.45048913 31.509215,9.32127717 C27.8084642,9.20347826 24.1146758,8.89858696 20.4176109,8.68581522 C17.4212969,8.51258152 14.4253925,8.25171196 11.4274403,8.21910326 C8.75959044,8.19016304 6.14825939,8.66665761 3.78307167,10.0313315 C2.06375427,11.0238587 0.799863481,12.4252174 0,14.2484511" id="Fill-3"></path>
                        <path d="M50.7570102,11.5755163 C52.1720273,11.5755163 53.8884778,11.4622011 55.2785119,11.2763315 C58.2854744,10.8732065 60.9807645,10.5075815 63.9852696,10.0808152 C65.5182389,9.86355978 67.0983072,9.72782609 68.635372,9.83991848 C71.0046553,10.1073098 73.0766007,11.5848913 74.6984437,13.8120652 C74.8749625,14.0888315 75.1985119,14.8054076 75.3971468,15.076875 C75.3209693,14.6085326 75.1288874,13.700788 75.0011058,13.246712 C74.0366007,10.96125 72.6625392,9.33407609 71.0026075,8.13611413 C69.0486143,6.88597826 66.8849283,6.23421196 64.584041,6.00350543 C64.1351672,5.95866848 63.8656792,6.07932065 63.544587,6.48529891 C63.002744,7.1688587 62.3310717,7.81206522 61.5856792,8.26084239 C59.2761911,9.65201087 56.6775563,10.2907337 54.0731877,10.8744293 C52.9768055,11.1198098 51.8660887,11.2999728 50.7615154,11.5098913 C50.7594676,11.5323098 50.7582389,11.553913 50.7570102,11.5755163" id="Fill-6"></path>
                        <path d="M13.0164369,21.3692527 C12.8767782,22.6556658 12.2689966,23.6856929 11.192273,24.458519 C10.1155495,25.2313451 8.74312628,25.6169429 7.0741843,25.6169429 C5.19104437,25.6169429 3.68920137,25.1274049 2.56865529,24.149144 C1.44810922,23.1700679 0.887426621,21.8600136 0.887426621,20.2165353 C0.887426621,18.5746875 1.44810922,17.2625951 2.56865529,16.2810734 C3.68920137,15.2995516 5.19104437,14.8091984 7.0741843,14.8091984 C8.72019113,14.8091984 10.0811468,15.1784918 11.1578703,15.9170788 C12.2337747,16.6544429 12.839099,17.6233288 12.9746621,18.8216984 L10.2642184,18.8216984 C9.97916724,18.1634103 9.55978157,17.7240082 9.12155631,17.3983288 C8.63254608,17.0355571 7.93138567,16.7530842 7.08524232,16.7530842 C6.0523413,16.7530842 5.22749488,17.2136821 4.62913311,17.8010462 C4.032,18.3888179 3.61548123,19.1832473 3.61548123,20.2059375 C3.61548123,21.2249592 4.03077133,22.0361005 4.62585666,22.6222418 C5.22135154,23.2075679 6.04783618,23.6591984 7.08524232,23.6591984 C7.9825802,23.6591984 8.72920137,23.2956114 9.25302389,22.8904484 C9.80223891,22.4653125 10.2085188,21.8706114 10.3526826,21.3692527 L13.0164369,21.3692527 Z" id="Fill-8"></path>
                        <polygon id="Fill-10" points="15.0844096 25.569538 15.0844096 14.8567663 17.7837952 14.8567663 17.7837952 18.8770109 22.9511672 18.8770109 22.9511672 14.8567663 25.6362184 14.8567663 25.6362184 25.569538 22.9511672 25.569538 22.9511672 21.121712 17.7837952 21.121712 17.7837952 25.569538"></polygon>
                        <polygon id="Fill-12" points="28.0528464 25.569538 28.0528464 14.8567663 37.6086143 14.8567663 37.6086143 17.0227989 30.7522321 17.0227989 30.7522321 18.8338043 36.8583072 18.8338043 36.8583072 21.0136957 30.7522321 21.0136957 30.7522321 23.3170924 37.6086143 23.3170924 37.6086143 25.569538"></polygon>
                        <polygon id="Fill-14" points="39.4636177 25.5697011 42.2666212 25.5697011 42.2666212 22.9911685 39.4636177 22.9911685"></polygon>
                        <path d="M53.2145529,22.4656793 C53.1113447,23.4166304 52.6620614,24.1768207 51.8679317,24.7474728 C51.0721638,25.3189402 50.0581024,25.6042663 48.8253379,25.6042663 C47.4340751,25.6042663 46.3254061,25.2423098 45.4976928,24.519212 C44.66957,23.7965217 44.2555085,22.8288587 44.2555085,21.6154076 C44.2555085,20.4019565 44.66957,19.4322554 45.4976928,18.7083424 C46.3254061,17.9832065 47.4340751,17.6200272 48.8253379,17.6200272 C50.0413106,17.6200272 51.0471809,17.893125 51.8421297,18.4385054 C52.6370785,18.9838859 53.084314,19.6984239 53.1842457,20.5841576 L51.1020614,20.5841576 C50.975099,20.1198913 50.7207645,19.7693478 50.3374198,19.5325272 C49.9548942,19.297337 49.4507304,19.1791304 48.8253379,19.1791304 C48.0635631,19.1791304 47.4611058,19.3967935 47.0196041,19.8304891 C46.5785119,20.265 46.3577611,20.8592935 46.3577611,21.6154076 C46.3577611,22.367038 46.5772833,22.9592935 47.0171468,23.3917663 C47.4570102,23.8242391 48.0594676,24.0402717 48.8253379,24.0402717 C49.488,24.0402717 50.0216519,23.9008696 50.4246553,23.6253261 C50.8280683,23.3485598 51.0615154,22.9613315 51.1233584,22.4656793 L53.2145529,22.4656793 Z" id="Fill-16"></path>
                        <path d="M59.0827167,24.0191168 C59.8391672,24.0191168 60.433843,23.8051223 60.8679727,23.3763179 C61.3016928,22.9479212 61.5187577,22.3605571 61.5187577,21.6154484 C61.5187577,20.8625951 61.3016928,20.2723777 60.8679727,19.8435734 C60.433843,19.4151766 59.8391672,19.1999592 59.0827167,19.1999592 C58.3274949,19.1999592 57.7303618,19.4159918 57.2925461,19.846019 C56.8555495,20.2764538 56.6364369,20.865856 56.6364369,21.6154484 C56.6364369,22.3605571 56.8543208,22.9479212 57.2904983,23.3763179 C57.7262662,23.8051223 58.3233993,24.0191168 59.0827167,24.0191168 M54.5526143,21.6154484 C54.5526143,20.4121875 54.9629898,19.4510462 55.7841502,18.7332473 C56.6044915,18.0146332 57.7037406,17.6547147 59.0827167,17.6547147 C60.4621024,17.6547147 61.5601229,18.0146332 62.3771877,18.7332473 C63.1946621,19.4510462 63.6025802,20.4121875 63.6025802,21.6154484 C63.6025802,22.8183016 63.1946621,23.7774049 62.3771877,24.493981 C61.5601229,25.2105571 60.4621024,25.5696603 59.0827167,25.5696603 C57.7037406,25.5696603 56.6044915,25.2105571 55.7841502,24.493981 C54.9629898,23.7774049 54.5526143,22.8183016 54.5526143,21.6154484" id="Fill-17"></path>
                        <polygon id="Fill-18" points="65.2072628 25.569538 65.2072628 17.655 67.7829625 17.655 70.3471945 23.3223913 72.9814608 17.655 75.536273 17.655 75.536273 25.569538 73.6220068 25.569538 73.6220068 20.2881522 71.1532014 25.569538 69.4924505 25.569538 67.121529 20.1972554 67.121529 25.569538"></polygon>
                    </g>
                </g>
            </g>
        </g>
    </g>
</svg>